<?xml version="1.0" encoding="UTF-8" standalone="no"?>
<!-- Created with Inkscape (http://www.inkscape.org/) -->

<svg
   width="15.081593mm"
   height="7.744925mm"
   viewBox="0 0 15.081593 7.744925"
   version="1.1"
   id="svg1"
   xml:space="preserve"
   inkscape:version="1.3.2 (091e20e, 2023-11-25, custom)"
   sodipodi:docname="Icons.svg"
   xmlns:inkscape="http://www.inkscape.org/namespaces/inkscape"
   xmlns:sodipodi="http://sodipodi.sourceforge.net/DTD/sodipodi-0.dtd"
   xmlns="http://www.w3.org/2000/svg"
   xmlns:svg="http://www.w3.org/2000/svg"><sodipodi:namedview
     id="namedview1"
     pagecolor="#ffffff"
     bordercolor="#000000"
     borderopacity="0.25"
     inkscape:showpageshadow="2"
     inkscape:pageopacity="0.0"
     inkscape:pagecheckerboard="0"
     inkscape:deskcolor="#d1d1d1"
     inkscape:document-units="mm"
     inkscape:zoom="0.52347032"
     inkscape:cx="666.70447"
     inkscape:cy="1187.2689"
     inkscape:window-width="1920"
     inkscape:window-height="1009"
     inkscape:window-x="-8"
     inkscape:window-y="-8"
     inkscape:window-maximized="1"
     inkscape:current-layer="layer1" /><defs
     id="defs1" /><g
     inkscape:label="Layer 1"
     inkscape:groupmode="layer"
     id="layer1"
     transform="translate(-64.540681,-262.22936)"><path
       id="path103"
       style="fill:#357426;stroke-width:0.135335;stroke-linecap:round;stroke-linejoin:round"
       d="m 76.07856,262.22999 c -1.833469,-0.0329 -3.649648,1.22758 -3.997172,3.49436 -0.715467,-4.36079 -5.52467,-3.95437 -6.692614,-2.32647 l 0.934826,0.87798 c 1.709177,-1.34267 4.069031,-0.73268 4.375961,1.48725 l -6.113839,0.0274 c -0.689717,5.2527 6.760146,5.49106 7.387146,1.09968 l 0.21394,0.009 c 1.071017,4.55071 8.122562,3.91084 7.380945,-1.12603 l -6.06888,-0.0305 c 0.493457,-2.46776 2.946303,-2.65947 4.37441,-1.45108 l 0.891935,-0.90382 c -0.76106,-0.7682 -1.726269,-1.14032 -2.686658,-1.15755 z m -10.196276,4.61574 2.342492,0.0315 h 2.342493 a 2.3428307,1.8144397 0 0 1 -1.182874,1.57665 2.3428307,1.8144397 0 0 1 -2.354378,-0.016 2.3428307,1.8144397 0 0 1 -1.147733,-1.59215 z m 7.72976,0 2.342493,0.0315 h 2.342493 a 2.3428307,1.8144397 0 0 1 -1.182874,1.57665 2.3428307,1.8144397 0 0 1 -2.354378,-0.016 2.3428307,1.8144397 0 0 1 -1.147734,-1.59215 z" /></g></svg>
