<?xml version="1.0" encoding="UTF-8" standalone="no"?>
<!-- Created with Inkscape (http://www.inkscape.org/) -->

<svg
   width="9.505641mm"
   height="11.162287mm"
   viewBox="0 0 9.505641 11.162287"
   version="1.1"
   id="svg1"
   xml:space="preserve"
   inkscape:version="1.3.2 (091e20e, 2023-11-25, custom)"
   sodipodi:docname="Icons.svg"
   xmlns:inkscape="http://www.inkscape.org/namespaces/inkscape"
   xmlns:sodipodi="http://sodipodi.sourceforge.net/DTD/sodipodi-0.dtd"
   xmlns="http://www.w3.org/2000/svg"
   xmlns:svg="http://www.w3.org/2000/svg"><sodipodi:namedview
     id="namedview1"
     pagecolor="#ffffff"
     bordercolor="#000000"
     borderopacity="0.25"
     inkscape:showpageshadow="2"
     inkscape:pageopacity="0.0"
     inkscape:pagecheckerboard="0"
     inkscape:deskcolor="#d1d1d1"
     inkscape:document-units="mm"
     inkscape:zoom="0.52347032"
     inkscape:cx="666.70447"
     inkscape:cy="1187.2689"
     inkscape:window-width="1920"
     inkscape:window-height="1009"
     inkscape:window-x="-8"
     inkscape:window-y="-8"
     inkscape:window-maximized="1"
     inkscape:current-layer="layer1" /><defs
     id="defs1" /><g
     inkscape:label="Layer 1"
     inkscape:groupmode="layer"
     id="layer1"
     transform="translate(-67.328592,-236.63723)"><g
       id="g103"><g
         id="g96"><path
           style="fill:#5b9948;fill-opacity:1;stroke:none;stroke-width:0.135335;stroke-linecap:round;stroke-linejoin:round;stroke-dasharray:none;stroke-opacity:1"
           d="m 72.381782,236.82184 -4.29202,4.58741 c -1.11382,1.23419 -0.91091,2.48246 0,3.54301 l 2.18783,2.18442 c 0.78796,0.20073 1.22451,-0.3241 0.88359,-0.99938 l -2.10405,-2.03149 c -0.51678,-0.66281 -0.47031,-1.24974 0,-1.8622 l 4.26855,-4.56481 c 0.4939,-0.46226 -0.19136,-1.45076 -0.9439,-0.85696 z"
           id="path21"
           sodipodi:nodetypes="ccccccccc" /><g
           id="g29"
           transform="translate(-66.607365,35.479767)"
           style="fill:#095101;fill-opacity:1"><path
             style="fill:#095101;fill-opacity:1;stroke:none;stroke-width:0.135335;stroke-linecap:round;stroke-linejoin:round;stroke-dasharray:none;stroke-opacity:1"
             d="m 138.93091,203.25256 c 0.48511,0.0418 0.86879,0.18653 1.15951,0.4304 l 1.82117,1.45733 c 0.52769,0.64715 -0.007,1.40967 -0.81164,1.0265 l -1.96676,-1.53144 c -0.45337,-0.20055 -0.99413,-0.29783 -1.64276,0.16752 z"
             id="path22"
             sodipodi:nodetypes="ccccccc" /><path
             style="fill:#095101;fill-opacity:1;stroke:none;stroke-width:0.135335;stroke-linecap:round;stroke-linejoin:round;stroke-dasharray:none;stroke-opacity:1"
             d="m 137.7536,210.64927 c 0.49166,0.4646 1.28828,0.49305 1.8127,-0.004 0.45518,-0.36949 0.84295,-0.7929 1.2441,-1.20562 0.6214,-0.35667 1.27669,0.10458 1.0004,0.85078 -0.56458,0.56828 -1.09421,1.16104 -1.76567,1.65452 -0.96007,0.60838 -2.26743,0.45114 -3.18078,-0.29073 1.11862,0.17349 1.05888,-0.57163 0.88925,-1.00467 z"
             id="path26"
             sodipodi:nodetypes="ccccccc" /></g></g><path
         id="path30"
         style="fill:#5b9948;fill-opacity:1;stroke-width:0.153209;stroke-linecap:round;stroke-linejoin:round"
         d="m 71.479852,242.52159 h 4.66826 c 0.38011,0 0.68612,0.30601 0.68612,0.68612 0,0.3801 -0.30601,0.68611 -0.68612,0.68611 h -4.66826 c -0.38011,0 -0.68611,-0.30601 -0.68611,-0.68611 0,-0.38011 0.306,-0.68612 0.68611,-0.68612 z" /></g></g></svg>
